<?xml version="1.0" encoding="UTF-8" standalone="no"?><svg xmlns="http://www.w3.org/2000/svg" version="1.1" xmlns:xlink="http://www.w3.org/1999/xlink" id="svg-chart" font-family="Arial" height="216.0" width="917.2236328125" style="font-size: 12pt;"><rect x="0" y="0" width="917.2236328125" height="216.0" style="fill:rgb(255, 128, 255);"/><line x1="0.0" y1="2.0" x2="917.2236328125" y2="2.0" style="stroke:rgb(0,0,0);stroke-width:4"/><rect x="0" y="4.0" width="913.2236328125" height="28.0" style="fill:rgb(200, 200, 200);"/><g><text x="35.806640625" y="18.0" font-weight="bold" class="table-data" height="28.0" width="35.6572265625">CPU</text></g><g><text x="225.4951171875" y="18.0" font-weight="bold" class="table-data" height="28.0" width="58.5966796875">IP Core</text></g><g><text x="471.32373046875" y="18.0" font-weight="bold" class="table-data" height="28.0" width="113.4052734375">Product/Model</text></g><g><text x="663.3193359375" y="18.0" font-weight="bold" class="table-data" height="28.0" width="71.5869140625">FreeBSD</text></g><g><text x="749.12109375" y="18.0" font-weight="bold" class="table-data" height="28.0" width="79.2158203125">OpenBSD</text></g><g><text x="843.4482421875" y="18.0" font-weight="bold" class="table-data" height="28.0" width="62.6923828125">NetBSD</text></g><line x1="0.0" y1="33.0" x2="917.2236328125" y2="33.0" style="stroke:rgb(0,0,0);stroke-width:2"/><g><g><g><rect x="4" y="34.0" width="99.33203125" height="28.0" style="fill:rgb(255, 255, 255);"/><text x="13.6845703125" y="48.0" class="table-data" height="28.0" width="79.962890625">D1 (D1-H)</text></g></g><g><g><rect x="105.33203125" y="34.0" width="301.4453125" height="28.0" style="fill:rgb(255, 255, 255);"/><text x="198.9697265625" y="48.0" class="table-data" height="28.0" width="114.169921875">XuanTie C906</text></g></g><g><g><rect x="408.77734375" y="34.0" width="247.5419921875" height="28.0" style="fill:rgb(255, 255, 255);"/><text x="434.91943359375" y="48.0" class="table-data" height="28.0" width="195.2578125">DongshanPI-Nezha STU</text></g></g><g><g><rect x="658.3193359375" y="34.0" width="83.8017578125" height="28.0" style="fill:rgb(255, 255, 203);"/><text x="683.35400390625" y="48.0" class="table-data" height="28.0" width="33.732421875">CFT</text></g></g><g><g><rect x="744.12109375" y="34.0" width="92.3271484375" height="28.0" style="fill:rgb(220, 220, 220);"/><text x="775.9541015625" y="48.0" class="table-data" height="28.0" width="28.6611328125">N/A</text></g></g><g><g><rect x="838.4482421875" y="34.0" width="74.775390625" height="28.0" style="fill:rgb(220, 220, 220);"/><text x="861.50537109375" y="48.0" class="table-data" height="28.0" width="28.6611328125">N/A</text></g></g></g><line x1="0.0" y1="63.0" x2="917.2236328125" y2="63.0" style="stroke:rgb(0,0,0);stroke-width:2"/><g><g><g><rect x="4" y="64.0" width="99.33203125" height="28.0" style="fill:rgb(255, 255, 255);"/><text x="33.28857421875" y="78.0" class="table-data" height="28.0" width="40.7548828125">U740</text></g></g><g><g><rect x="105.33203125" y="64.0" width="301.4453125" height="28.0" style="fill:rgb(255, 255, 255);"/><text x="164.08154296875" y="78.0" class="table-data" height="28.0" width="183.9462890625">SiFive U74 + SiFive S7</text></g></g><g><g><rect x="408.77734375" y="64.0" width="247.5419921875" height="28.0" style="fill:rgb(255, 255, 255);"/><text x="459.8935546875" y="78.0" class="table-data" height="28.0" width="145.3095703125">HiFive Unmatched</text></g></g><g><a xlink:href="https://github.com/ruyisdk/support-matrix/tree/main/Unmatched/FreeBSD/README.md"><rect x="658.3193359375" y="64.0" width="83.8017578125" height="28.0" style="fill:rgb(203, 255, 203);"/><text x="678.955078125" y="78.0" class="table-data" height="28.0" width="42.5302734375">Basic</text></a></g><g><a xlink:href="https://github.com/ruyisdk/support-matrix/tree/main/Unmatched/OpenBSD/README.md"><rect x="744.12109375" y="64.0" width="92.3271484375" height="28.0" style="fill:rgb(203, 255, 203);"/><text x="769.01953125" y="78.0" class="table-data" height="28.0" width="42.5302734375">Basic</text></a></g><g><g><rect x="838.4482421875" y="64.0" width="74.775390625" height="28.0" style="fill:rgb(220, 220, 220);"/><text x="861.50537109375" y="78.0" class="table-data" height="28.0" width="28.6611328125">N/A</text></g></g></g><line x1="0.0" y1="93.0" x2="917.2236328125" y2="93.0" style="stroke:rgb(0,0,0);stroke-width:2"/><g><g><g><rect x="4" y="94.0" width="99.33203125" height="28.0" style="fill:rgb(255, 255, 255);"/><text x="13.6845703125" y="108.0" class="table-data" height="28.0" width="79.962890625">D1 (D1-H)</text></g></g><g><g><rect x="105.33203125" y="94.0" width="301.4453125" height="28.0" style="fill:rgb(255, 255, 255);"/><text x="198.9697265625" y="108.0" class="table-data" height="28.0" width="114.169921875">XuanTie C906</text></g></g><g><g><rect x="408.77734375" y="94.0" width="247.5419921875" height="28.0" style="fill:rgb(255, 255, 255);"/><text x="464.525390625" y="108.0" class="table-data" height="28.0" width="136.0458984375">MangoPi MQ Pro</text></g></g><g><a xlink:href="https://github.com/ruyisdk/support-matrix/tree/main/mangopi_mq_pro/FreeBSD/README.md"><rect x="658.3193359375" y="94.0" width="83.8017578125" height="28.0" style="fill:rgb(255, 255, 203);"/><text x="683.35400390625" y="108.0" class="table-data" height="28.0" width="33.732421875">CFT</text></a></g><g><g><rect x="744.12109375" y="94.0" width="92.3271484375" height="28.0" style="fill:rgb(220, 220, 220);"/><text x="775.9541015625" y="108.0" class="table-data" height="28.0" width="28.6611328125">N/A</text></g></g><g><a xlink:href="https://github.com/ruyisdk/support-matrix/tree/main/mangopi_mq_pro/NetBSD/README.md"><rect x="838.4482421875" y="94.0" width="74.775390625" height="28.0" style="fill:rgb(255, 255, 203);"/><text x="858.9697265625" y="108.0" class="table-data" height="28.0" width="33.732421875">CFT</text></a></g></g><line x1="0.0" y1="123.0" x2="917.2236328125" y2="123.0" style="stroke:rgb(0,0,0);stroke-width:2"/><g><g><g><rect x="4" y="124.0" width="99.33203125" height="28.0" style="fill:rgb(255, 255, 255);"/><text x="9.0" y="138.0" class="table-data" height="28.0" width="89.33203125">MPFS250T</text></g></g><g><g><rect x="105.33203125" y="124.0" width="301.4453125" height="28.0" style="fill:rgb(255, 255, 255);"/><text x="160.31982421875" y="138.0" class="table-data" height="28.0" width="191.4697265625">SiFive U54 + SiFive E51</text></g></g><g><g><rect x="408.77734375" y="124.0" width="247.5419921875" height="28.0" style="fill:rgb(255, 255, 255);"/><text x="413.77734375" y="138.0" class="table-data" height="28.0" width="237.5419921875">PolarFire FPGA SoC Icicle Kit</text></g></g><g><g><rect x="658.3193359375" y="124.0" width="83.8017578125" height="28.0" style="fill:rgb(220, 220, 220);"/><text x="685.8896484375" y="138.0" class="table-data" height="28.0" width="28.6611328125">N/A</text></g></g><g><g><rect x="744.12109375" y="124.0" width="92.3271484375" height="28.0" style="fill:rgb(255, 255, 203);"/><text x="773.41845703125" y="138.0" class="table-data" height="28.0" width="33.732421875">CFT</text></g></g><g><g><rect x="838.4482421875" y="124.0" width="74.775390625" height="28.0" style="fill:rgb(220, 220, 220);"/><text x="861.50537109375" y="138.0" class="table-data" height="28.0" width="28.6611328125">N/A</text></g></g></g><line x1="0.0" y1="153.0" x2="917.2236328125" y2="153.0" style="stroke:rgb(0,0,0);stroke-width:2"/><g><g><g><rect x="4" y="154.0" width="99.33203125" height="28.0" style="fill:rgb(255, 255, 255);"/><text x="23.3173828125" y="168.0" class="table-data" height="28.0" width="60.697265625">JH7100</text></g></g><g><g><rect x="105.33203125" y="154.0" width="301.4453125" height="28.0" style="fill:rgb(255, 255, 255);"/><text x="159.1025390625" y="168.0" class="table-data" height="28.0" width="193.904296875">SiFive U74 + SiFive E24</text></g></g><g><g><rect x="408.77734375" y="154.0" width="247.5419921875" height="28.0" style="fill:rgb(255, 255, 255);"/><text x="491.4462890625" y="168.0" class="table-data" height="28.0" width="82.2041015625">VisionFive</text></g></g><g><g><rect x="658.3193359375" y="154.0" width="83.8017578125" height="28.0" style="fill:rgb(220, 220, 220);"/><text x="685.8896484375" y="168.0" class="table-data" height="28.0" width="28.6611328125">N/A</text></g></g><g><a xlink:href="https://github.com/ruyisdk/support-matrix/tree/main/VisionFive/OpenBSD/README.md"><rect x="744.12109375" y="154.0" width="92.3271484375" height="28.0" style="fill:rgb(203, 255, 203);"/><text x="769.01953125" y="168.0" class="table-data" height="28.0" width="42.5302734375">Basic</text></a></g><g><g><rect x="838.4482421875" y="154.0" width="74.775390625" height="28.0" style="fill:rgb(220, 220, 220);"/><text x="861.50537109375" y="168.0" class="table-data" height="28.0" width="28.6611328125">N/A</text></g></g></g><line x1="0.0" y1="183.0" x2="917.2236328125" y2="183.0" style="stroke:rgb(0,0,0);stroke-width:2"/><g><g><g><rect x="4" y="184.0" width="99.33203125" height="28.0" style="fill:rgb(255, 255, 255);"/><text x="23.3173828125" y="198.0" class="table-data" height="28.0" width="60.697265625">JH7110</text></g></g><g><g><rect x="105.33203125" y="184.0" width="301.4453125" height="28.0" style="fill:rgb(255, 255, 255);"/><text x="110.33203125" y="198.0" class="table-data" height="28.0" width="291.4453125">SiFive U74 + SiFive S7 + SiFive E24</text></g></g><g><g><rect x="408.77734375" y="184.0" width="247.5419921875" height="28.0" style="fill:rgb(255, 255, 255);"/><text x="484.04150390625" y="198.0" class="table-data" height="28.0" width="97.013671875">VisionFive 2</text></g></g><g><g><rect x="658.3193359375" y="184.0" width="83.8017578125" height="28.0" style="fill:rgb(255, 203, 203);"/><text x="683.72314453125" y="198.0" class="table-data" height="28.0" width="32.994140625">WIP</text></g></g><g><a xlink:href="https://github.com/ruyisdk/support-matrix/tree/main/VisionFive2/OpenBSD/README.md"><rect x="744.12109375" y="184.0" width="92.3271484375" height="28.0" style="fill:rgb(203, 255, 203);"/><text x="769.01953125" y="198.0" class="table-data" height="28.0" width="42.5302734375">Basic</text></a></g><g><a xlink:href="https://github.com/ruyisdk/support-matrix/tree/main/VisionFive2/NetBSD/README.md"><rect x="838.4482421875" y="184.0" width="74.775390625" height="28.0" style="fill:rgb(203, 255, 203);"/><text x="854.57080078125" y="198.0" class="table-data" height="28.0" width="42.5302734375">Basic</text></a></g></g><line x1="0.0" y1="214.0" x2="917.2236328125" y2="214.0" style="stroke:rgb(0,0,0);stroke-width:4"/><line x1="2.0" y1="0.0" x2="2.0" y2="216.0" style="stroke:rgb(0,0,0);stroke-width:4"/><line x1="104.33203125" y1="0.0" x2="104.33203125" y2="216.0" style="stroke:rgb(0,0,0);stroke-width:2"/><line x1="407.77734375" y1="0.0" x2="407.77734375" y2="216.0" style="stroke:rgb(0,0,0);stroke-width:2"/><line x1="657.3193359375" y1="0.0" x2="657.3193359375" y2="216.0" style="stroke:rgb(0,0,0);stroke-width:2"/><line x1="743.12109375" y1="0.0" x2="743.12109375" y2="216.0" style="stroke:rgb(0,0,0);stroke-width:2"/><line x1="837.4482421875" y1="0.0" x2="837.4482421875" y2="216.0" style="stroke:rgb(0,0,0);stroke-width:2"/><line x1="915.2236328125" y1="0.0" x2="915.2236328125" y2="216.0" style="stroke:rgb(0,0,0);stroke-width:4"/></svg>