<?xml version="1.0" encoding="UTF-8" standalone="no"?><svg xmlns="http://www.w3.org/2000/svg" version="1.1" xmlns:xlink="http://www.w3.org/1999/xlink" id="svg-chart" font-family="Arial" height="306.0" width="941.7333984375" style="font-size: 12pt;"><rect x="0" y="0" width="941.7333984375" height="306.0" style="fill:rgb(255, 128, 255);"/><line x1="0.0" y1="2.0" x2="941.7333984375" y2="2.0" style="stroke:rgb(0,0,0);stroke-width:4"/><rect x="0" y="4.0" width="937.7333984375" height="28.0" style="fill:rgb(200, 200, 200);"/><g><text x="43.8662109375" y="18.0" font-weight="bold" class="table-data" height="28.0" width="35.6572265625">CPU</text></g><g><text x="288.00732421875" y="18.0" font-weight="bold" class="table-data" height="28.0" width="58.5966796875">IP Core</text></g><g><text x="559.0869140625" y="18.0" font-weight="bold" class="table-data" height="28.0" width="113.4052734375">Product/Model</text></g><g><text x="729.9404296875" y="18.0" font-weight="bold" class="table-data" height="28.0" width="60.767578125">Android</text></g><g><text x="809.783203125" y="18.0" font-weight="bold" class="table-data" height="28.0" width="116.0244140625">OpenHarmony</text></g><line x1="0.0" y1="33.0" x2="941.7333984375" y2="33.0" style="stroke:rgb(0,0,0);stroke-width:2"/><g><g><g><rect x="4" y="34.0" width="115.451171875" height="28.0" style="fill:rgb(255, 255, 255);"/><text x="9.0" y="48.0" class="table-data" height="28.0" width="105.451171875">Key Stone K1</text></g></g><g><g><rect x="121.451171875" y="34.0" width="394.2314453125" height="28.0" style="fill:rgb(255, 255, 255);"/><text x="260.37451171875" y="48.0" class="table-data" height="28.0" width="116.384765625">SpacemiT X60</text></g></g><g><g><rect x="517.6826171875" y="34.0" width="205.2578125" height="28.0" style="fill:rgb(255, 255, 255);"/><text x="551.84033203125" y="48.0" class="table-data" height="28.0" width="136.9423828125">BananaPi BPI-F3</text></g></g><g><g><rect x="724.9404296875" y="34.0" width="77.8427734375" height="28.0" style="fill:rgb(220, 220, 220);"/><text x="749.53125" y="48.0" class="table-data" height="28.0" width="28.6611328125">N/A</text></g></g><g><g><rect x="804.783203125" y="34.0" width="132.9501953125" height="28.0" style="fill:rgb(255, 255, 203);"/><text x="854.39208984375" y="48.0" class="table-data" height="28.0" width="33.732421875">CFT</text></g></g></g><line x1="0.0" y1="63.0" x2="941.7333984375" y2="63.0" style="stroke:rgb(0,0,0);stroke-width:2"/><g><g><g><rect x="4" y="64.0" width="115.451171875" height="28.0" style="fill:rgb(255, 255, 255);"/><text x="30.3486328125" y="78.0" class="table-data" height="28.0" width="62.75390625">TH1520</text></g></g><g><g><rect x="121.451171875" y="64.0" width="394.2314453125" height="28.0" style="fill:rgb(255, 255, 255);"/><text x="126.451171875" y="78.0" class="table-data" height="28.0" width="384.2314453125">XuanTie C910 + XuanTie C906 + XuanTie E902</text></g></g><g><g><rect x="517.6826171875" y="64.0" width="205.2578125" height="28.0" style="fill:rgb(255, 255, 255);"/><text x="558.57275390625" y="78.0" class="table-data" height="28.0" width="123.4775390625">BeagleV-Ahead</text></g></g><g><g><rect x="724.9404296875" y="64.0" width="77.8427734375" height="28.0" style="fill:rgb(255, 255, 203);"/><text x="746.99560546875" y="78.0" class="table-data" height="28.0" width="33.732421875">CFT</text></g></g><g><g><rect x="804.783203125" y="64.0" width="132.9501953125" height="28.0" style="fill:rgb(255, 255, 203);"/><text x="854.39208984375" y="78.0" class="table-data" height="28.0" width="33.732421875">CFT</text></g></g></g><line x1="0.0" y1="93.0" x2="941.7333984375" y2="93.0" style="stroke:rgb(0,0,0);stroke-width:2"/><g><g><g><rect x="4" y="94.0" width="115.451171875" height="28.0" style="fill:rgb(255, 255, 255);"/><text x="21.744140625" y="108.0" class="table-data" height="28.0" width="79.962890625">D1 (D1-H)</text></g></g><g><g><rect x="121.451171875" y="94.0" width="394.2314453125" height="28.0" style="fill:rgb(255, 255, 255);"/><text x="261.48193359375" y="108.0" class="table-data" height="28.0" width="114.169921875">XuanTie C906</text></g></g><g><g><rect x="517.6826171875" y="94.0" width="205.2578125" height="28.0" style="fill:rgb(255, 255, 255);"/><text x="522.6826171875" y="108.0" class="table-data" height="28.0" width="195.2578125">DongshanPI-Nezha STU</text></g></g><g><g><rect x="724.9404296875" y="94.0" width="77.8427734375" height="28.0" style="fill:rgb(220, 220, 220);"/><text x="749.53125" y="108.0" class="table-data" height="28.0" width="28.6611328125">N/A</text></g></g><g><g><rect x="804.783203125" y="94.0" width="132.9501953125" height="28.0" style="fill:rgb(255, 255, 203);"/><text x="854.39208984375" y="108.0" class="table-data" height="28.0" width="33.732421875">CFT</text></g></g></g><line x1="0.0" y1="123.0" x2="941.7333984375" y2="123.0" style="stroke:rgb(0,0,0);stroke-width:2"/><g><g><g><rect x="4" y="124.0" width="115.451171875" height="28.0" style="fill:rgb(255, 255, 255);"/><text x="30.3486328125" y="138.0" class="table-data" height="28.0" width="62.75390625">TH1520</text></g></g><g><g><rect x="121.451171875" y="124.0" width="394.2314453125" height="28.0" style="fill:rgb(255, 255, 255);"/><text x="126.451171875" y="138.0" class="table-data" height="28.0" width="384.2314453125">XuanTie C910 + XuanTie C906 + XuanTie E902</text></g></g><g><g><rect x="517.6826171875" y="124.0" width="205.2578125" height="28.0" style="fill:rgb(255, 255, 255);"/><text x="572.92529296875" y="138.0" class="table-data" height="28.0" width="94.7724609375">LicheePi 4A</text></g></g><g><g><rect x="724.9404296875" y="124.0" width="77.8427734375" height="28.0" style="fill:rgb(255, 255, 203);"/><text x="746.99560546875" y="138.0" class="table-data" height="28.0" width="33.732421875">CFT</text></g></g><g><g><rect x="804.783203125" y="124.0" width="132.9501953125" height="28.0" style="fill:rgb(255, 255, 203);"/><text x="854.39208984375" y="138.0" class="table-data" height="28.0" width="33.732421875">CFT</text></g></g></g><line x1="0.0" y1="153.0" x2="941.7333984375" y2="153.0" style="stroke:rgb(0,0,0);stroke-width:2"/><g><g><g><rect x="4" y="154.0" width="115.451171875" height="28.0" style="fill:rgb(255, 255, 255);"/><text x="21.744140625" y="168.0" class="table-data" height="28.0" width="79.962890625">D1 (D1-H)</text></g></g><g><g><rect x="121.451171875" y="154.0" width="394.2314453125" height="28.0" style="fill:rgb(255, 255, 255);"/><text x="261.48193359375" y="168.0" class="table-data" height="28.0" width="114.169921875">XuanTie C906</text></g></g><g><g><rect x="517.6826171875" y="154.0" width="205.2578125" height="28.0" style="fill:rgb(255, 255, 255);"/><text x="524.8095703125" y="168.0" class="table-data" height="28.0" width="191.00390625">LicheeRV/AWOL Nezha</text></g></g><g><g><rect x="724.9404296875" y="154.0" width="77.8427734375" height="28.0" style="fill:rgb(220, 220, 220);"/><text x="749.53125" y="168.0" class="table-data" height="28.0" width="28.6611328125">N/A</text></g></g><g><g><rect x="804.783203125" y="154.0" width="132.9501953125" height="28.0" style="fill:rgb(255, 255, 203);"/><text x="854.39208984375" y="168.0" class="table-data" height="28.0" width="33.732421875">CFT</text></g></g></g><line x1="0.0" y1="183.0" x2="941.7333984375" y2="183.0" style="stroke:rgb(0,0,0);stroke-width:2"/><g><g><g><rect x="4" y="184.0" width="115.451171875" height="28.0" style="fill:rgb(255, 255, 255);"/><text x="21.744140625" y="198.0" class="table-data" height="28.0" width="79.962890625">D1 (D1-H)</text></g></g><g><g><rect x="121.451171875" y="184.0" width="394.2314453125" height="28.0" style="fill:rgb(255, 255, 255);"/><text x="261.48193359375" y="198.0" class="table-data" height="28.0" width="114.169921875">XuanTie C906</text></g></g><g><g><rect x="517.6826171875" y="184.0" width="205.2578125" height="28.0" style="fill:rgb(255, 255, 255);"/><text x="552.28857421875" y="198.0" class="table-data" height="28.0" width="136.0458984375">MangoPi MQ Pro</text></g></g><g><g><rect x="724.9404296875" y="184.0" width="77.8427734375" height="28.0" style="fill:rgb(220, 220, 220);"/><text x="749.53125" y="198.0" class="table-data" height="28.0" width="28.6611328125">N/A</text></g></g><g><g><rect x="804.783203125" y="184.0" width="132.9501953125" height="28.0" style="fill:rgb(255, 255, 203);"/><text x="854.39208984375" y="198.0" class="table-data" height="28.0" width="33.732421875">CFT</text></g></g></g><line x1="0.0" y1="213.0" x2="941.7333984375" y2="213.0" style="stroke:rgb(0,0,0);stroke-width:2"/><g><g><g><rect x="4" y="214.0" width="115.451171875" height="28.0" style="fill:rgb(255, 255, 255);"/><text x="29.57958984375" y="228.0" class="table-data" height="28.0" width="64.2919921875">SG2042</text></g></g><g><g><rect x="121.451171875" y="214.0" width="394.2314453125" height="28.0" style="fill:rgb(255, 255, 255);"/><text x="261.49951171875" y="228.0" class="table-data" height="28.0" width="114.134765625">XuanTie C920</text></g></g><g><g><rect x="517.6826171875" y="214.0" width="205.2578125" height="28.0" style="fill:rgb(255, 255, 255);"/><text x="572.0419921875" y="228.0" class="table-data" height="28.0" width="96.5390625">Pioneer Box</text></g></g><g><g><rect x="724.9404296875" y="214.0" width="77.8427734375" height="28.0" style="fill:rgb(220, 220, 220);"/><text x="749.53125" y="228.0" class="table-data" height="28.0" width="28.6611328125">N/A</text></g></g><g><g><rect x="804.783203125" y="214.0" width="132.9501953125" height="28.0" style="fill:rgb(255, 203, 203);"/><text x="854.76123046875" y="228.0" class="table-data" height="28.0" width="32.994140625">WIP</text></g></g></g><line x1="0.0" y1="243.0" x2="941.7333984375" y2="243.0" style="stroke:rgb(0,0,0);stroke-width:2"/><g><g><g><rect x="4" y="244.0" width="115.451171875" height="28.0" style="fill:rgb(255, 255, 255);"/><text x="31.376953125" y="258.0" class="table-data" height="28.0" width="60.697265625">JH7100</text></g></g><g><g><rect x="121.451171875" y="244.0" width="394.2314453125" height="28.0" style="fill:rgb(255, 255, 255);"/><text x="221.61474609375" y="258.0" class="table-data" height="28.0" width="193.904296875">SiFive U74 + SiFive E24</text></g></g><g><g><rect x="517.6826171875" y="244.0" width="205.2578125" height="28.0" style="fill:rgb(255, 255, 255);"/><text x="579.20947265625" y="258.0" class="table-data" height="28.0" width="82.2041015625">VisionFive</text></g></g><g><g><rect x="724.9404296875" y="244.0" width="77.8427734375" height="28.0" style="fill:rgb(255, 203, 203);"/><text x="747.36474609375" y="258.0" class="table-data" height="28.0" width="32.994140625">WIP</text></g></g><g><g><rect x="804.783203125" y="244.0" width="132.9501953125" height="28.0" style="fill:rgb(255, 203, 203);"/><text x="854.76123046875" y="258.0" class="table-data" height="28.0" width="32.994140625">WIP</text></g></g></g><line x1="0.0" y1="273.0" x2="941.7333984375" y2="273.0" style="stroke:rgb(0,0,0);stroke-width:2"/><g><g><g><rect x="4" y="274.0" width="115.451171875" height="28.0" style="fill:rgb(255, 255, 255);"/><text x="31.376953125" y="288.0" class="table-data" height="28.0" width="60.697265625">JH7110</text></g></g><g><g><rect x="121.451171875" y="274.0" width="394.2314453125" height="28.0" style="fill:rgb(255, 255, 255);"/><text x="172.84423828125" y="288.0" class="table-data" height="28.0" width="291.4453125">SiFive U74 + SiFive S7 + SiFive E24</text></g></g><g><g><rect x="517.6826171875" y="274.0" width="205.2578125" height="28.0" style="fill:rgb(255, 255, 255);"/><text x="571.8046875" y="288.0" class="table-data" height="28.0" width="97.013671875">VisionFive 2</text></g></g><g><g><rect x="724.9404296875" y="274.0" width="77.8427734375" height="28.0" style="fill:rgb(255, 203, 203);"/><text x="747.36474609375" y="288.0" class="table-data" height="28.0" width="32.994140625">WIP</text></g></g><g><g><rect x="804.783203125" y="274.0" width="132.9501953125" height="28.0" style="fill:rgb(255, 203, 203);"/><text x="854.76123046875" y="288.0" class="table-data" height="28.0" width="32.994140625">WIP</text></g></g></g><line x1="0.0" y1="304.0" x2="941.7333984375" y2="304.0" style="stroke:rgb(0,0,0);stroke-width:4"/><line x1="2.0" y1="0.0" x2="2.0" y2="306.0" style="stroke:rgb(0,0,0);stroke-width:4"/><line x1="120.451171875" y1="0.0" x2="120.451171875" y2="306.0" style="stroke:rgb(0,0,0);stroke-width:2"/><line x1="516.6826171875" y1="0.0" x2="516.6826171875" y2="306.0" style="stroke:rgb(0,0,0);stroke-width:2"/><line x1="723.9404296875" y1="0.0" x2="723.9404296875" y2="306.0" style="stroke:rgb(0,0,0);stroke-width:2"/><line x1="803.783203125" y1="0.0" x2="803.783203125" y2="306.0" style="stroke:rgb(0,0,0);stroke-width:2"/><line x1="939.7333984375" y1="0.0" x2="939.7333984375" y2="306.0" style="stroke:rgb(0,0,0);stroke-width:4"/></svg>