<?xml version="1.0" encoding="UTF-8" standalone="no"?><svg xmlns:xlink="http://www.w3.org/1999/xlink" xmlns="http://www.w3.org/2000/svg" id="svg-chart" font-family="Arial" height="310.0" width="1008.0" style="font-size: 12pt;"><rect id="table-bg" x="0" y="0" width="1008.0" height="310.0" style="fill: rgb(255, 255, 255);"/><g><rect x="0" y="4" width="1000.0" height="28.0" style="fill: rgb(200,200,200);"/><text x="9" y="18.0" font-weight="bold" class="table-head" width="130.0">CPU</text><text x="141.0" y="18.0" font-weight="bold" class="table-head" width="430.0">IP Core</text><text x="573.0" y="18.0" font-weight="bold" class="table-head" width="210.0">Product/Model</text><text x="785.0" y="18.0" font-weight="bold" class="table-head" width="87.00000000000001">Android</text><text x="874.0" y="18.0" font-weight="bold" class="table-head" width="131.0">OpenHarmony</text></g><line x1="0" y1="32.0" x2="1000.0" y2="32.0" style="stroke:rgb(128,128,128);stroke-width:2"/><rect x="4" y="34.0" width="130.0" height="28.0" style="fill: rgb(255,255,255);"/><rect x="136.0" y="34.0" width="430.0" height="28.0" style="fill: rgb(255,255,255);"/><a xlink:href="https://github.com/ruyisdk/support-matrix/tree/main/BPI-F3"><rect x="568.0" y="34.0" width="210.0" height="28.0" style="fill: rgb(255,255,255);"/></a><rect x="780.0" y="34.0" width="87.00000000000001" height="28.0" style="fill: rgb(220,220,220);"/><rect x="869.0" y="34.0" width="131.0" height="28.0" style="fill: rgb(255,255,203);"/><g><text x="9" y="48.0" class="table-data" height="28.0" width="130.0">Key Stone K1</text><text x="141.0" y="48.0" class="table-data" height="28.0" width="430.0">SpacemiT X60</text><text x="573.0" y="48.0" class="table-data" height="28.0" width="210.0">BananaPi BPI-F3</text><text x="785.0" y="48.0" class="table-data" height="28.0" width="87.00000000000001">N/A</text><text x="874.0" y="48.0" class="table-data" height="28.0" width="131.0">CFT</text></g><line x1="0" y1="62.0" x2="1000.0" y2="62.0" style="stroke:rgb(128,128,128);stroke-width:2"/><rect x="4" y="64.0" width="130.0" height="28.0" style="fill: rgb(255,255,255);"/><rect x="136.0" y="64.0" width="430.0" height="28.0" style="fill: rgb(255,255,255);"/><a xlink:href="https://github.com/ruyisdk/support-matrix/tree/main/BeagleV-Ahead"><rect x="568.0" y="64.0" width="210.0" height="28.0" style="fill: rgb(255,255,255);"/></a><rect x="780.0" y="64.0" width="87.00000000000001" height="28.0" style="fill: rgb(255,255,203);"/><rect x="869.0" y="64.0" width="131.0" height="28.0" style="fill: rgb(255,255,203);"/><g><text x="9" y="78.0" class="table-data" height="28.0" width="130.0">TH1520</text><text x="141.0" y="78.0" class="table-data" height="28.0" width="430.0">XuanTie C910 + XuanTie C906 + XuanTie E902</text><text x="573.0" y="78.0" class="table-data" height="28.0" width="210.0">BeagleV-Ahead</text><text x="785.0" y="78.0" class="table-data" height="28.0" width="87.00000000000001">CFT</text><text x="874.0" y="78.0" class="table-data" height="28.0" width="131.0">CFT</text></g><line x1="0" y1="92.0" x2="1000.0" y2="92.0" style="stroke:rgb(128,128,128);stroke-width:2"/><rect x="4" y="94.0" width="130.0" height="28.0" style="fill: rgb(255,255,255);"/><rect x="136.0" y="94.0" width="430.0" height="28.0" style="fill: rgb(255,255,255);"/><a xlink:href="https://github.com/ruyisdk/support-matrix/tree/main/D1_LicheeRV"><rect x="568.0" y="94.0" width="210.0" height="28.0" style="fill: rgb(255,255,255);"/></a><rect x="780.0" y="94.0" width="87.00000000000001" height="28.0" style="fill: rgb(220,220,220);"/><rect x="869.0" y="94.0" width="131.0" height="28.0" style="fill: rgb(255,255,203);"/><g><text x="9" y="108.0" class="table-data" height="28.0" width="130.0">D1 (D1-H)</text><text x="141.0" y="108.0" class="table-data" height="28.0" width="430.0">XuanTie C906</text><text x="573.0" y="108.0" class="table-data" height="28.0" width="210.0">LicheeRV/AWOL Nezha</text><text x="785.0" y="108.0" class="table-data" height="28.0" width="87.00000000000001">N/A</text><text x="874.0" y="108.0" class="table-data" height="28.0" width="131.0">CFT</text></g><line x1="0" y1="122.0" x2="1000.0" y2="122.0" style="stroke:rgb(128,128,128);stroke-width:2"/><rect x="4" y="124.0" width="130.0" height="28.0" style="fill: rgb(255,255,255);"/><rect x="136.0" y="124.0" width="430.0" height="28.0" style="fill: rgb(255,255,255);"/><a xlink:href="https://github.com/ruyisdk/support-matrix/tree/main/DongshanPI-STU"><rect x="568.0" y="124.0" width="210.0" height="28.0" style="fill: rgb(255,255,255);"/></a><rect x="780.0" y="124.0" width="87.00000000000001" height="28.0" style="fill: rgb(220,220,220);"/><rect x="869.0" y="124.0" width="131.0" height="28.0" style="fill: rgb(255,255,203);"/><g><text x="9" y="138.0" class="table-data" height="28.0" width="130.0">D1 (D1-H)</text><text x="141.0" y="138.0" class="table-data" height="28.0" width="430.0">XuanTie C906</text><text x="573.0" y="138.0" class="table-data" height="28.0" width="210.0">DongshanPI-Nezha STU</text><text x="785.0" y="138.0" class="table-data" height="28.0" width="87.00000000000001">N/A</text><text x="874.0" y="138.0" class="table-data" height="28.0" width="131.0">CFT</text></g><line x1="0" y1="152.0" x2="1000.0" y2="152.0" style="stroke:rgb(128,128,128);stroke-width:2"/><rect x="4" y="154.0" width="130.0" height="28.0" style="fill: rgb(255,255,255);"/><rect x="136.0" y="154.0" width="430.0" height="28.0" style="fill: rgb(255,255,255);"/><a xlink:href="https://github.com/ruyisdk/support-matrix/tree/main/LicheePi4A"><rect x="568.0" y="154.0" width="210.0" height="28.0" style="fill: rgb(255,255,255);"/></a><rect x="780.0" y="154.0" width="87.00000000000001" height="28.0" style="fill: rgb(255,255,203);"/><rect x="869.0" y="154.0" width="131.0" height="28.0" style="fill: rgb(255,255,203);"/><g><text x="9" y="168.0" class="table-data" height="28.0" width="130.0">TH1520</text><text x="141.0" y="168.0" class="table-data" height="28.0" width="430.0">XuanTie C910 + XuanTie C906 + XuanTie E902</text><text x="573.0" y="168.0" class="table-data" height="28.0" width="210.0">LicheePi 4A</text><text x="785.0" y="168.0" class="table-data" height="28.0" width="87.00000000000001">CFT</text><text x="874.0" y="168.0" class="table-data" height="28.0" width="131.0">CFT</text></g><line x1="0" y1="182.0" x2="1000.0" y2="182.0" style="stroke:rgb(128,128,128);stroke-width:2"/><rect x="4" y="184.0" width="130.0" height="28.0" style="fill: rgb(255,255,255);"/><rect x="136.0" y="184.0" width="430.0" height="28.0" style="fill: rgb(255,255,255);"/><a xlink:href="https://github.com/ruyisdk/support-matrix/tree/main/Pioneer"><rect x="568.0" y="184.0" width="210.0" height="28.0" style="fill: rgb(255,255,255);"/></a><rect x="780.0" y="184.0" width="87.00000000000001" height="28.0" style="fill: rgb(220,220,220);"/><rect x="869.0" y="184.0" width="131.0" height="28.0" style="fill: rgb(255,203,203);"/><g><text x="9" y="198.0" class="table-data" height="28.0" width="130.0">SG2042</text><text x="141.0" y="198.0" class="table-data" height="28.0" width="430.0">XuanTie C920</text><text x="573.0" y="198.0" class="table-data" height="28.0" width="210.0">Pioneer Box</text><text x="785.0" y="198.0" class="table-data" height="28.0" width="87.00000000000001">N/A</text><text x="874.0" y="198.0" class="table-data" height="28.0" width="131.0">WIP</text></g><line x1="0" y1="212.0" x2="1000.0" y2="212.0" style="stroke:rgb(128,128,128);stroke-width:2"/><rect x="4" y="214.0" width="130.0" height="28.0" style="fill: rgb(255,255,255);"/><rect x="136.0" y="214.0" width="430.0" height="28.0" style="fill: rgb(255,255,255);"/><a xlink:href="https://github.com/ruyisdk/support-matrix/tree/main/VisionFive"><rect x="568.0" y="214.0" width="210.0" height="28.0" style="fill: rgb(255,255,255);"/></a><rect x="780.0" y="214.0" width="87.00000000000001" height="28.0" style="fill: rgb(255,203,203);"/><rect x="869.0" y="214.0" width="131.0" height="28.0" style="fill: rgb(255,203,203);"/><g><text x="9" y="228.0" class="table-data" height="28.0" width="130.0">JH7100</text><text x="141.0" y="228.0" class="table-data" height="28.0" width="430.0">SiFive U74 + SiFive E24</text><text x="573.0" y="228.0" class="table-data" height="28.0" width="210.0">VisionFive</text><text x="785.0" y="228.0" class="table-data" height="28.0" width="87.00000000000001">WIP</text><text x="874.0" y="228.0" class="table-data" height="28.0" width="131.0">WIP</text></g><line x1="0" y1="242.0" x2="1000.0" y2="242.0" style="stroke:rgb(128,128,128);stroke-width:2"/><rect x="4" y="244.0" width="130.0" height="28.0" style="fill: rgb(255,255,255);"/><rect x="136.0" y="244.0" width="430.0" height="28.0" style="fill: rgb(255,255,255);"/><a xlink:href="https://github.com/ruyisdk/support-matrix/tree/main/VisionFive2"><rect x="568.0" y="244.0" width="210.0" height="28.0" style="fill: rgb(255,255,255);"/></a><rect x="780.0" y="244.0" width="87.00000000000001" height="28.0" style="fill: rgb(255,203,203);"/><rect x="869.0" y="244.0" width="131.0" height="28.0" style="fill: rgb(255,203,203);"/><g><text x="9" y="258.0" class="table-data" height="28.0" width="130.0">JH7110</text><text x="141.0" y="258.0" class="table-data" height="28.0" width="430.0">SiFive U74 + SiFive S7 + SiFive E24</text><text x="573.0" y="258.0" class="table-data" height="28.0" width="210.0">VisionFive 2</text><text x="785.0" y="258.0" class="table-data" height="28.0" width="87.00000000000001">WIP</text><text x="874.0" y="258.0" class="table-data" height="28.0" width="131.0">WIP</text></g><line x1="0" y1="272.0" x2="1000.0" y2="272.0" style="stroke:rgb(128,128,128);stroke-width:2"/><rect x="4" y="274.0" width="130.0" height="28.0" style="fill: rgb(255,255,255);"/><rect x="136.0" y="274.0" width="430.0" height="28.0" style="fill: rgb(255,255,255);"/><a xlink:href="https://github.com/ruyisdk/support-matrix/tree/main/mangopi_mq_pro"><rect x="568.0" y="274.0" width="210.0" height="28.0" style="fill: rgb(255,255,255);"/></a><rect x="780.0" y="274.0" width="87.00000000000001" height="28.0" style="fill: rgb(220,220,220);"/><rect x="869.0" y="274.0" width="131.0" height="28.0" style="fill: rgb(255,255,203);"/><g><text x="9" y="288.0" class="table-data" height="28.0" width="130.0">D1 (D1-H)</text><text x="141.0" y="288.0" class="table-data" height="28.0" width="430.0">XuanTie C906</text><text x="573.0" y="288.0" class="table-data" height="28.0" width="210.0">MangoPi MQ Pro</text><text x="785.0" y="288.0" class="table-data" height="28.0" width="87.00000000000001">N/A</text><text x="874.0" y="288.0" class="table-data" height="28.0" width="131.0">CFT</text></g><line x1="134.0" y1="0" x2="134.0" y2="302.0" style="stroke:rgb(128,128,128);stroke-width:2"/><line x1="566.0" y1="0" x2="566.0" y2="302.0" style="stroke:rgb(128,128,128);stroke-width:2"/><line x1="778.0" y1="0" x2="778.0" y2="302.0" style="stroke:rgb(128,128,128);stroke-width:2"/><line x1="867.0" y1="0" x2="867.0" y2="302.0" style="stroke:rgb(128,128,128);stroke-width:2"/><line x1="0" y1="2" x2="1000.0" y2="2" style="stroke:rgb(0,0,0);stroke-width:4"/><line x1="0" y1="302.0" x2="1000.0" y2="302.0" style="stroke:rgb(0,0,0);stroke-width:4"/><line x1="0" y1="0" x2="0" y2="302.0" style="stroke:rgb(0,0,0);stroke-width:4"/><line x1="1000.0" y1="0" x2="1000.0" y2="302.0" style="stroke:rgb(0,0,0);stroke-width:4"/></svg>